<!DOCTYPE svg PUBLIC "-//W3C//DTD SVG 1.1//EN" "http://www.w3.org/Graphics/SVG/1.1/DTD/svg11.dtd">
<!-- Uploaded to: SVG Repo, www.svgrepo.com, Transformed by: SVG Repo Mixer Tools -->
<svg width="800px" height="800px" viewBox="-1.6 -1.6 19.20 19.20" fill="none" xmlns="http://www.w3.org/2000/svg">
<g id="SVGRepo_bgCarrier" stroke-width="0">
<path transform="translate(-1.6, -1.6), scale(1.2)" fill="#ffffff" d="M9.166.33a2.25 2.25 0 00-2.332 0l-5.25 3.182A2.25 2.25 0 00.5 5.436v5.128a2.25 2.25 0 001.084 1.924l5.25 3.182a2.25 2.25 0 002.332 0l5.25-3.182a2.25 2.25 0 001.084-1.924V5.436a2.25 2.25 0 00-1.084-1.924L9.166.33z" strokewidth="0"/>
</g>
<g id="SVGRepo_tracerCarrier" stroke-linecap="round" stroke-linejoin="round"/>
<g id="SVGRepo_iconCarrier"> <path d="M8 3V0H6V3H8Z" fill="#000000"/> <path d="M9.87868 12H7V15H10.6109C13.5872 15 16 12.5872 16 9.61091C16 8.18164 15.4322 6.8109 14.4216 5.80025L13.3322 4.71088L8.8322 6.71088L6.56066 4.43934L4.43934 6.56066L9.87868 12Z" fill="#000000"/> <path d="M0 6H3V8H0V6Z" fill="#000000"/> <path d="M3.29289 4.70711L0.792893 2.20711L2.20711 0.792893L4.70711 3.29289L3.29289 4.70711Z" fill="#000000"/> </g>
</svg>